# xmcd
#
# Track frame offsets:
#	150
#	17947
#	30003
#	47398
#	62824
#	84841
#	99987
#	114812
#	128962
#	143855
#	160529
#	176356
#
# Disc length: 2626 seconds
# Revision: 0
# Processed by: cddbd v1.5.2PL0 Copyright (c) Steve Scherf et al.
# Submitted via: dBpowerAMP V12.0
#
DISCID=800a400c
DTITLE=Ten Cent Shooters - Crooked Roots
DYEAR=2003
DGENRE=Blues
TTITLE0=Canned Heat
TTITLE1=Don't Want That Junk Outa You
TTITLE2=The Dirty Dozens
TTITLE3=No Doubt
TTITLE4=No Money Down
TTITLE5=Black Horse Blues
TTITLE6=Kindhearted Woman Blues
TTITLE7=Grizzly Bear
TTITLE8=Stop Breakin' Down
TTITLE9=Sweet Home Chicago
TTITLE10=Eeasy Rider
TTITLE11=Careless Love
EXTD=
EXTT0=
EXTT1=
EXTT2=
EXTT3=
EXTT4=
EXTT5=
EXTT6=
EXTT7=
EXTT8=
EXTT9=
EXTT10=
EXTT11=
PLAYORDER=
